<?xml version="1.0" encoding="utf-8"?>
<!-- Generator: Adobe Illustrator 19.2.1, SVG Export Plug-In . SVG Version: 6.00 Build 0)  -->
<svg version="1.1" id="Layer_1" xmlns="http://www.w3.org/2000/svg" xmlns:xlink="http://www.w3.org/1999/xlink" x="0px" y="0px"
	 viewBox="0 0 778.5 379.5" style="enable-background:new 0 0 778.5 379.5;" xml:space="preserve">
<style type="text/css">
	.st0{fill:#F6A80E;}
	.st1{fill:#221E1F;}
	.st2{fill:#B3B3B3;}
</style>
<g>
	<g>
		<g>
			<polygon class="st0" points="119.7,223.7 119.7,286.7 160.8,271.7 160.8,210.6 			"/>
			<polygon class="st0" points="111,223.7 111,286.7 70,271.7 70,210.6 			"/>
		</g>
		<polygon class="st0" points="115.4,214.7 78.1,204.5 115.4,192.3 152.6,204.5 		"/>
	</g>
	<g>
		<g>
			<polygon class="st0" points="64.8,136.9 64.8,199.9 105.9,184.9 105.9,123.8 			"/>
			<polygon class="st0" points="56.1,136.9 56.1,199.9 15.1,184.9 15.1,123.8 			"/>
		</g>
		<polygon class="st0" points="60.5,127.9 23.2,117.7 60.5,105.5 97.7,117.7 		"/>
	</g>
	<g>
		<g>
			<polygon class="st0" points="168.8,136.9 168.8,199.9 209.8,184.9 209.8,123.8 			"/>
			<polygon class="st0" points="160.1,136.9 160.1,199.9 119,184.9 119,123.8 			"/>
		</g>
		<polygon class="st0" points="164.4,127.9 127.1,117.7 164.4,105.5 201.7,117.7 		"/>
	</g>
	<g>
		<g>
			<polygon class="st0" points="222.4,46.3 222.4,109.2 263.4,94.2 263.4,33.2 			"/>
			<polygon class="st0" points="213.7,46.3 213.7,109.2 172.6,94.2 172.6,33.2 			"/>
		</g>
		<polygon class="st0" points="218,37.3 180.8,27 218,14.9 255.3,27 		"/>
	</g>
	<g>
		<g>
			<polygon class="st0" points="324.5,50.1 324.5,113.1 365.6,98.1 365.6,37 			"/>
			<polygon class="st0" points="315.8,50.1 315.8,113.1 274.8,98.1 274.8,37 			"/>
		</g>
		<polygon class="st0" points="320.2,41.1 282.9,30.9 320.2,18.7 357.4,30.9 		"/>
	</g>
	<path class="st1" d="M339.4,134c6.9-16.9,31.5-18.7,39,0.8c3.6-8.1,9.4-12.9,18.2-13.9c11.6-1.3,21.5,6.5,22.8,18.2
		c1,9,0.3,18,0.4,27c0.1,11.7,0,23.5,0.1,35.2c0,3.5-1.2,5-4.8,4.8c-3.7-0.2-7.4-0.2-11.1,0c-3.6,0.2-4.7-1.4-4.7-4.8
		c0.1-14.9,0.1-29.9,0.1-44.8c0-2.5,0.1-4.9-0.1-7.4c-0.4-4.9-2.7-7.8-6.3-8.5c-4.9-0.9-9.3,1.3-11.2,5.8c-1.3,3.1-1.6,6.5-1.6,9.8
		c0,14.9,0,29.9,0,44.8c0,4.7-0.4,5.1-5.1,5.1c-3.6,0-7.2-0.1-10.7,0c-3.6,0.2-4.7-1.5-4.7-4.9c0.1-14.7,0.1-29.4,0.1-44.1
		c0-3.6,0.1-7.2-0.9-10.6c-1.2-3.7-3.4-5.9-7.4-6.1c-4.4-0.2-7.2,1.3-9,5.1c-2,4.3-2,8.9-2,13.4c-0.1,14,0,27.9,0,41.9
		c0,4.9-0.3,5.2-5.3,5.2c-3.5,0-6.9-0.2-10.4,0c-3.6,0.2-4.7-1.2-4.7-4.8c0.1-24.7,0.1-49.4,0.1-74.1c0-0.4,0-0.7,0-1.1
		c-0.2-2.5,1.1-3.8,3.5-3.8c4.2-0.1,8.4-0.1,12.6,0c2.2,0,3.4,1.2,3.4,3.5C339.3,128.5,339.4,131.3,339.4,134z"/>
	<path class="st1" d="M284.9,196.1c-5.3,5.5-11.1,9.7-19,10.6c-12.9,1.4-22.1-3-25.8-12.9c-4.6-12.2-0.6-26.2,9.6-33
		c6-4,12.9-5.3,19.9-6.2c3.3-0.4,6.6-0.9,9.9-1.1c2.3-0.1,3-1.1,2.7-3.2c-0.2-1.3-0.1-2.7-0.3-4.1c-0.7-6.4-3.4-9.4-8.9-9.9
		c-5.9-0.6-11.2,2.4-12.7,7.9c-0.9,3.4-2.6,4.3-5.8,3.8c-3.4-0.6-6.8-1-10.3-1.3c-3.3-0.3-3.8-2-3.1-4.8c2.1-8.5,6.9-14.7,14.9-18.2
		c11.4-4.9,23-5.2,34.4-0.1c7.4,3.3,11.3,9.3,11.9,17.4c0.9,11.3,0.3,22.7,0.3,34c0,5.8,1,11,4.8,15.5c2,2.4,2,4.4-0.6,6.5
		c-3.2,2.5-6.1,5.4-9.1,8.1c-1.8,1.6-3.5,1.7-5.5-0.1C289.4,202.4,287.2,199.4,284.9,196.1z M281.8,172.1c0-1.6-0.1-3.2,0-4.8
		c0.1-1.5-0.5-1.9-2-1.9c-4.5,0.2-8.8,0.6-12.9,2.6c-6.8,3.5-9.4,13.3-5.2,19.8c1.6,2.4,3.8,3.7,6.8,3.8c4.6,0.1,7.6-2.3,10-5.9
		C281.3,181.7,281.9,177,281.8,172.1z"/>
	<path class="st1" d="M497.2,161.2c0,4,0.2,7.9,0,11.9c-0.4,6.6,0.7,12.8,5.2,18c1.7,2,1.5,3.9-0.7,5.7c-3.2,2.7-6.3,5.6-9.4,8.4
		c-1.8,1.6-3.6,1.8-5.5,0c-2.2-2.1-4.3-4.1-5.7-6.7c-1.3-2.3-2.2-1.9-3.7-0.3c-5.6,6-12.6,8.7-20.8,9c-13.8,0.5-23-7.9-23.8-21.7
		c-0.8-16.2,8.7-27.1,26.3-30c4.6-0.8,9.3-1.3,13.9-1.8c2.5-0.2,4-0.9,3.4-3.7c-0.2-0.8,0-1.7,0-2.6c-0.2-6.7-2.7-10-8.2-11
		c-6-1-11.7,2.1-13.4,7.8c-1,3.3-2.7,4.3-5.9,3.7c-3.5-0.6-7.1-1-10.6-1.4c-2.5-0.3-3.3-1.5-2.8-4c2-9.6,7.7-16.1,16.8-19.6
		c8.5-3.3,17.3-3.8,26.2-1.6c12.3,3.1,18.3,10.5,18.7,23.3C497.3,150.1,497.2,155.6,497.2,161.2
		C497.2,161.2,497.2,161.2,497.2,161.2z M476.4,171.6c0-6.5,0-6.5-6.5-5.9c-0.7,0.1-1.5,0.1-2.2,0.3c-9.5,1.9-14.3,7.6-13.3,16
		c0.5,4.3,2,8,6.5,9.4c3.9,1.2,8.3-0.6,11.3-4.4C475.7,182.5,476.4,177.1,476.4,171.6z"/>
	<path class="st1" d="M676.5,135.5c0.6-1.2,1.2-2.4,1.9-3.6c4.9-9,12-12.3,22.2-10.6c8.6,1.4,14.3,7.6,16.1,17
		c1,5.5,0.9,11.1,0.9,16.6c0.1,15.3,0,30.6,0,45.9c0,4.9-0.4,5.2-5.3,5.2c-3.6,0-7.2-0.1-10.7,0c-3.2,0.1-4.4-1.1-4.4-4.4
		c0.1-15.2,0-30.4,0-45.6c0-3.1-0.2-6.2-1-9.2c-0.9-3.6-3-6.2-7-6.7c-4-0.5-7,1.2-9,4.5c-1.9,3.1-2.8,6.6-3,10.2
		c-0.8,15.1-0.2,30.1-0.4,45.2c-0.1,5.6-0.3,5.9-5.8,5.9c-3.5,0-6.9-0.1-10.4,0c-2.7,0.1-4.2-1-4.2-3.9c0-25.3,0-50.6,0-75.9
		c0-2.5,1.2-3.6,3.6-3.6c4.1,0,8.1,0,12.2,0c2.5,0,3.6,1.1,3.5,3.6c-0.1,3,0,6.1,0,9.1C676.1,135.4,676.3,135.4,676.5,135.5z"/>
	<path class="st1" d="M645.6,163.1c0,12.1-2.2,22.1-8.3,30.9c-13.5,19.5-41.7,18.1-52.6-3c-8.8-17-8.8-34.7-1-52.1
		c5.7-12.6,17.1-19.1,30-18.1c15,1.1,23.8,10,28.8,23.5C644.8,150.8,645.7,157.7,645.6,163.1z M623.7,164.2
		c-0.3-6.6-0.2-13.3-2.2-19.8c-1.5-4.8-4.5-7.3-9-7.5c-4.7-0.3-8.1,1.9-10,6.6c-0.8,1.9-1.3,4-1.6,6c-1.3,7.6-0.9,15.3-0.5,22.9
		c0.3,4.9,1,9.9,3.5,14.2c3.8,6.6,11.9,6.7,15.9,0.2c1.3-2.1,2.1-4.4,2.6-6.9C623.5,174.8,623.6,169.5,623.7,164.2z"/>
	<path class="st1" d="M541.5,178.5c5.8,0.4,11.5,0.7,17.1,2.2c12,3.4,14.8,7.9,12.6,20.2c-0.5,2.7-2,3.4-4.6,2.2
		c-16.5-7.9-33-7.9-49.5,0.1c-3,1.4-4.4,0.6-4.5-2.8c-0.1-4.1,0-8.1,0.1-12.2c0-2.8,1.2-5.2,2.8-7.5c8.9-13.1,17.7-26.1,26.5-39.2
		c0.4-0.6,0.8-1.2,1.5-2.4c-2.4,0-4.2,0-6.1,0c-6,0-12.1-0.1-18.1,0c-2.5,0-3.8-0.9-3.8-3.4c0-3.5,0-6.9,0-10.4
		c0-2.3,1.3-3.3,3.6-3.3c15.7,0,31.4,0,47,0c2.5,0,3.5,1.3,3.6,3.7c0.3,6.1-0.3,11.7-4.3,17c-7.8,10.5-14.9,21.5-22.2,32.3
		C542.5,176.1,541.5,176.9,541.5,178.5z"/>
	<path class="st1" d="M270.5,247.6c-2.5,12.7-5,25.4-7.6,38c-0.8,4.2-3.9,6-8.1,4.6c-0.9-0.3-1.1-1-1.2-1.6
		c-4.4-18.6-8.7-37.2-13-55.7c0.3-0.2,0.4-0.3,0.5-0.3c7.1-0.7,7.1-0.7,8.5,6.2c2.4,11.8,4.9,23.6,7.4,35.5c0.1,0.5,0,1.2,1.2,1.7
		c1.1-5.2,2.1-10.2,3.2-15.3c1.7-8.3,3.8-16.6,5-25c0.6-4.2,3.2-2.9,5.5-3.3c2.7-0.4,3.2,1.1,3.6,3.3c2.4,12.6,4.9,25.2,7.4,37.7
		c0.1,0.6,0,1.2,1.1,1.8c1.6-7,3.2-13.8,4.7-20.6c1.4-6,2.8-12,3.9-18.1c0.6-3.3,1.9-4.7,5.3-4.1c0.8,0.2,1.7,0,2.9,0
		c-2.9,12.4-5.8,24.5-8.7,36.5c-1.5,6.4-3.2,12.7-4.5,19.1c-0.8,3.9-3.7,1.6-5.6,2.1c-1.7,0.5-2.8-0.1-3.2-2.3
		C276.4,274.5,273.3,261.2,270.5,247.6z"/>
	<path class="st1" d="M361.5,284.2c-0.1,1-0.1,1.5-0.1,2c-0.1,3.7-2.4,5.3-6.1,4c-1.6-0.5-1-1.8-1-2.8c0-9.5,0-19,0-28.5
		c0-14.8,0.1-29.6-0.1-44.4c0-3.2,0.6-4.3,4-4.2c3.2,0.1,3.9,1.1,3.8,4c-0.2,7.7-0.1,15.5-0.1,23c1,0.4,1.2-0.2,1.4-0.5
		c5.7-8.4,16.6-6.9,22.5,0.3c4,4.9,5.7,10.8,6.4,17.1c0.9,8.1,0.4,16-2.4,23.7c-1,2.8-2.5,5.3-4.5,7.6
		C378.1,294,369.6,293.7,361.5,284.2z M384.8,261.8c-0.1-5.5-0.1-10.4-2.1-14.9c-1.8-4-4.5-7.3-9.2-7.6c-4.7-0.3-7.3,3-9.4,6.7
		c-0.4,0.6-0.7,1.3-1,2c-2.9,9.2-2.9,18.4,0,27.6c1.4,4.5,4.6,7.8,9.7,7.8c4.8,0.1,7.4-3.3,9.4-7.2
		C384.7,271.4,384.8,266.2,384.8,261.8z"/>
	<path class="st1" d="M475.2,261.9c-4.7,0-9.4,0.1-14.1,0c-1.7,0-2.5,0.3-2.2,2.3c0.5,2.8,0.8,5.6,1.9,8.3c2.1,4.9,5.2,8.7,11.1,8.9
		c4.9,0.2,8.7-2.9,11.2-8.7c0.5-1.2,0.1-3.2,2.9-2.8c6.3,1,6.5,1.2,4,7.2c-3.2,7.6-8.6,12.2-17.1,12.5c-8.8,0.3-15.1-3.9-18.4-11.8
		c-4.9-12-4.8-24.4,0-36.4c3-7.3,8.7-11.8,17.2-11.9c8.4-0.1,13.5,4.7,16.9,11.7c2.9,5.9,3.4,12.3,3.5,18.7c0,1.9-0.7,2.2-2.4,2.2
		C484.9,261.9,480,261.9,475.2,261.9z M472,253.8c3.2,0,6.4-0.1,9.6,0c2.2,0.1,2.4-0.8,2.2-2.6c-0.6-7.6-5.3-13.5-11.3-14
		c-5.6-0.5-10.8,4.3-12.6,11.8c-0.1,0.6-0.3,1.2-0.4,1.8c-0.5,2.1,0,3.2,2.5,3C465.3,253.6,468.7,253.8,472,253.8z"/>
	<path class="st1" d="M328.9,264c-4.4,0-8.9,0.2-13.3-0.1c-2.8-0.1-3.4,0.9-3,3.4c0.4,2.4,0.8,4.9,1.7,7.2c2.1,4.9,5.2,8.7,11.1,9
		c4.9,0.2,8.6-2.9,11-8.8c0.6-1.5,0.6-3.2,3.3-2.7c5.7,1.1,5.7,0.9,3.5,6.6c-3,7.7-8.3,12.6-16.7,13c-8.5,0.4-14.9-3.7-18.3-11.4
		c-5.5-12.6-5.3-25.5,0.5-38c3.2-7,8.9-11.2,17-11c8.1,0.3,13.1,5.2,16.3,12.1c2.7,5.8,3.3,12.1,3.3,18.4c0,1.8-0.6,2.4-2.4,2.3
		C338.3,263.9,333.6,264,328.9,264z M325.1,255.9c3.3,0,6.6-0.1,10,0c1.8,0.1,2.3-0.5,2.2-2.3c-0.4-7.7-5.5-14.1-11.7-14.4
		c-6-0.2-11.3,5.6-12.2,13.4c0,0.4,0,0.7-0.1,1.1c-0.4,1.7,0.3,2.2,1.9,2.2C318.4,255.9,321.8,255.9,325.1,255.9z"/>
	<path class="st1" d="M656.5,261.9c-4.6,0-9.1,0.1-13.7,0c-2.2-0.1-3.1,0.3-2.8,2.8c0.4,2.8,0.9,5.6,2,8.2c2.3,5.5,6.5,8.6,11.5,8.4
		c5.6-0.2,8.5-3.8,10.5-8.5c0.6-1.5,0.5-3.6,3.5-2.9c5.9,1.4,6.2-0.3,3.6,6.8c-3.1,8.3-9.6,12.7-17.7,12.8
		c-8.3,0-15.2-4.4-18.3-12.5c-4.4-11.6-4.4-23.5,0.1-35.1c3-7.6,8.7-12.5,17.5-12.5c8.7-0.1,13.8,5,17.2,12.3
		c2.7,5.7,3.1,11.9,3.1,18.1c0,1.9-0.8,2.3-2.4,2.2C665.9,261.9,661.2,261.9,656.5,261.9z M652.5,253.8c1.8,0,3.7,0,5.5,0
		c7.8,0,8.3-0.7,5.4-8.1c-0.4-1.1-1-2.3-1.7-3.3c-4.4-6.7-12.2-7-17.3-0.8c-2.4,2.9-3.5,6.4-4.1,10.1c-0.3,1.5,0.1,2.2,1.9,2.2
		C645.7,253.7,649.1,253.8,652.5,253.8z"/>
	<path class="st1" d="M698,229.3c9.2,0.1,15,4.8,16.3,13.3c0.2,1.3,0.9,3.4-1.6,3c-1.9-0.3-4.7,3.2-5.8-1.5
		c-1.7-6.9-10.8-9.5-16.4-5c-4.1,3.4-3.3,9.3,1.7,11.4c4.4,1.9,9,3.3,13.4,5.1c8.7,3.5,12.1,9.4,10.7,18.2
		c-1.5,9.2-7.4,14.7-16.3,15.4c-11.1,0.8-18.7-5.4-20.4-16.5c-0.2-1.7,0.3-2.1,1.7-2.5c4.8-1.3,4.8-1.4,6.6,3.5
		c2.4,6.7,10.6,9.6,16.7,5.8c3-1.9,4.1-4.8,3.9-8.2c-0.2-3.1-2.1-4.8-4.8-5.9c-4.3-1.6-8.6-3-12.8-4.8c-8.5-3.7-11.9-10.6-9.8-19.5
		C683,233.6,689.1,229.2,698,229.3z"/>
	<path class="st1" d="M426.2,229.3c9.5,0.1,14.8,4.6,16.4,13.7c0.3,1.8,0.2,2.5-1.9,2.9c-3.2,0.6-5,0.9-6.2-3.3
		c-1.8-6.3-12.6-7.6-16.7-2.4c-2.8,3.6-1.7,8.5,2.7,10.4c4.4,1.9,9,3.4,13.4,5.2c8.6,3.4,11.5,8.5,10.6,18
		c-0.8,7.9-6.1,13.7-13.9,15.3c-11.4,2.3-20.8-4.3-22.5-15.8c-0.7-4.6,3.2-2.5,5-3.5c2-1.1,2.2,0.4,2.6,2.1
		c1.7,7.9,8.4,11.5,15.6,8.6c3.6-1.4,5.4-4.3,5.5-8c0.1-3.5-1.9-5.7-5.1-6.9c-4.3-1.6-8.6-3.1-12.7-4.9c-8.1-3.6-11.6-10.6-9.7-18.9
		C411.3,233.6,417.1,229.2,426.2,229.3z"/>
	<path class="st1" d="M597.2,259.5c-0.1,4.4,0.3,8.7,1.6,12.8c1.1,3.5,3.1,6.5,6.5,8.1c5.5,2.6,11.5-0.2,14-6.4
		c0.3-0.8,0.6-1.6,0.8-2.5c1.1-4.3,2.9-5.2,7.1-3.5c0.7,0.3,0.9,0.5,1,1.3c0.9,9.2-8.8,20-18.1,20.2c-7.6,0.2-13.3-3.5-16.3-10.1
		c-6.1-13.2-6.2-26.8,0-40c3.7-7.8,11.5-11.2,19.8-9.8c7,1.2,12.2,7.4,13.6,15.7c0.3,1.9-0.4,2.2-1.9,2.7c-3.3,1-5.6,1.1-6.4-3.3
		c-0.8-4-3.5-6.8-7.8-7.3c-4.3-0.5-7.4,1.5-9.8,4.8C597.5,247.3,597.3,253.4,597.2,259.5z"/>
	<path class="st1" d="M526,231.2c3.6-2.3,7.3-1.1,8.3,2.5c3.7,13.8,8,27.4,11.2,41.4c1.1-0.2,0.8-1.1,1-1.6
		c3.6-12.9,7.4-25.8,10.7-38.8c0.9-3.5,2.3-5,5.9-4.4c0.8,0.1,1.7,0,3.1,0c-1.7,6-3.4,11.7-5.1,17.4c-3.6,12.5-7.4,25-10.8,37.6
		c-0.8,2.9-2.4,2.8-4.5,2.8c-2.2,0-3.7-0.1-4.5-2.9c-4.9-17.7-10.1-35.3-15.1-52.9C526.1,232,526,231.6,526,231.2z"/>
	<path class="st1" d="M526,231.2c0.1,0.4,0.1,0.7,0.2,1.1c-2.4,2.3-1.6,5.8-3.5,8.8c-0.3,0.2-0.7-0.4-1.2-0.6c-5-2.2-9-0.7-10.8,4.5
		c-1.2,3.5-1.6,7.2-1.6,10.9c0,9.7-0.2,19.5,0,29.2c0.1,3.5-1.8,3-3.9,3c-2,0-4,0.6-3.9-2.9c0.2-17.3,0.1-34.5,0-51.8
		c0-2.8,1-3.2,3.4-3.2c2.5,0,4.1,0.3,3.6,3.3c-0.2,1.2,0,2.5,0,4c1.5-0.9,1.7-2.3,2.4-3.3c3.2-5.2,7-6.3,12.5-3.6
		C523.8,231.1,524.7,233,526,231.2z"/>
	<path class="st1" d="M572.7,259.5c0-8.6,0.2-17.3-0.1-25.9c-0.1-3.4,1.5-3.4,3.9-3.3c2.2,0,3.8-0.2,3.7,3.1
		c-0.2,17.3-0.2,34.5,0,51.8c0,3.6-1.9,2.8-3.9,2.9c-2.2,0.1-3.9,0.3-3.8-3C572.9,276.5,572.7,268,572.7,259.5z"/>
	<path class="st1" d="M744.1,238.9c0,4.7,0,9.4,0,14.1c0,0.9,0.5,2.1-1.2,2.2c-1.7,0.1-1.6-1.1-1.6-2.3c0-5.8,0-11.6,0-17.4
		c0-1-0.3-2.4,1.5-2.3c1.4,0,2.9-0.4,3.5,1.7c1.6,5.4,3.5,10.7,5.7,17.1c2-5.9,3.8-10.9,5.4-16c0.6-2,1.4-3.2,3.8-2.8
		c2.5,0.4,1.3,2.3,1.3,3.5c0.2,5.3,0.1,10.6,0.1,15.9c0,1.1,0.5,2.7-1.5,2.6c-2.1,0-1.4-1.7-1.4-2.7c-0.1-4.5,0-9-0.6-13.7
		c-1.6,4.6-3.2,9.2-4.8,13.7c-0.4,1.2-0.5,2.8-2.5,2.7c-1.8-0.1-1.7-1.6-2.1-2.6c-1.6-4.6-3.2-9.2-4.8-13.8
		C744.5,238.8,744.3,238.8,744.1,238.9z"/>
	<path class="st1" d="M728.3,245.5c0-1.2,0-2.5,0-3.7c0-5.5,0-5.5-5.3-5.9c-1-0.1-2,0.1-2-1.4c0-1.6,1.1-1.3,2-1.4
		c4.6,0,9.1,0,13.7,0c0.8,0,1.8-0.3,1.9,1.1c0.1,1.3-0.6,1.6-1.8,1.7c-1.8,0.2-4.2-1-5.2,0.6c-0.9,1.5-0.3,3.8-0.3,5.8
		c0,3.5,0,6.9,0,10.4c0,1,0.3,2.4-1.4,2.5c-2.1,0.1-1.5-1.5-1.6-2.6C728.2,250.2,728.3,247.9,728.3,245.5z"/>
	<path class="st1" d="M580.2,214.2c0,0.4,0,0.7,0,1.1c0,4.1-2.8,6-6.6,4.5c-0.5-0.2-0.8-0.4-0.8-1c0-3.1-0.6-6.3,0.2-9.2
		c0.7-2.4,3.6-0.5,5.5-1c1.5-0.4,1.9,0.5,1.8,1.9C580.1,211.8,580.2,213,580.2,214.2z"/>
</g>
<g>
	<path class="st2" d="M108.7,355.4h-5.9c-0.7,0-1.2-0.2-1.6-0.5c-0.4-0.3-0.7-0.7-0.9-1.2l-3.1-8.4h-17l-3.1,8.4
		c-0.2,0.4-0.4,0.8-0.9,1.2c-0.4,0.4-1,0.5-1.6,0.5h-6l16.1-41h7.8L108.7,355.4z M95.2,339.9l-5-13.6c-0.2-0.6-0.5-1.3-0.8-2.2
		c-0.3-0.8-0.5-1.7-0.8-2.7c-0.2,1-0.5,1.9-0.8,2.7c-0.3,0.8-0.5,1.6-0.8,2.2l-5,13.6H95.2z"/>
	<path class="st2" d="M170.5,314.4l-12.7,41h-6.9l-9-28c-0.2-0.7-0.5-1.5-0.7-2.5c-0.1,0.5-0.2,0.9-0.3,1.3
		c-0.1,0.4-0.2,0.8-0.4,1.2l-9,28h-6.9l-12.7-41h6.4c0.7,0,1.2,0.2,1.7,0.5c0.4,0.3,0.7,0.7,0.9,1.3l7,24.5c0.2,0.6,0.3,1.3,0.4,2
		c0.1,0.7,0.3,1.5,0.4,2.2c0.2-0.8,0.3-1.5,0.5-2.2c0.2-0.7,0.4-1.4,0.6-2l8.1-24.5c0.2-0.4,0.4-0.8,0.9-1.2c0.4-0.4,1-0.5,1.6-0.5
		h2.2c0.7,0,1.2,0.2,1.6,0.5c0.4,0.3,0.7,0.7,0.9,1.2l8,24.5c0.4,1.2,0.8,2.5,1.1,4.1c0.2-1.5,0.5-2.8,0.8-4.1l7-24.5
		c0.1-0.5,0.4-0.9,0.9-1.2c0.5-0.3,1-0.5,1.7-0.5H170.5z"/>
	<path class="st2" d="M202.6,321.8c-0.2,0.4-0.5,0.7-0.7,0.9c-0.3,0.2-0.6,0.3-1,0.3c-0.4,0-0.8-0.1-1.3-0.4c-0.5-0.3-1-0.6-1.7-1
		c-0.6-0.4-1.4-0.7-2.3-1c-0.9-0.3-1.9-0.4-3-0.4c-1.1,0-2,0.1-2.8,0.4c-0.8,0.3-1.5,0.6-2,1.1c-0.5,0.5-0.9,1-1.2,1.6
		c-0.3,0.6-0.4,1.3-0.4,2.1c0,1,0.3,1.8,0.8,2.4c0.5,0.6,1.3,1.2,2.1,1.6c0.9,0.5,1.9,0.9,3,1.2c1.1,0.4,2.3,0.7,3.5,1.1
		c1.2,0.4,2.4,0.9,3.5,1.4c1.1,0.5,2.1,1.2,3,2c0.9,0.8,1.6,1.8,2.1,3c0.5,1.2,0.8,2.6,0.8,4.3c0,1.9-0.3,3.6-1,5.2
		c-0.6,1.6-1.6,3-2.8,4.2c-1.2,1.2-2.7,2.1-4.5,2.8c-1.8,0.7-3.8,1-6,1c-1.3,0-2.6-0.1-3.9-0.4c-1.3-0.3-2.5-0.6-3.6-1.1
		c-1.2-0.5-2.3-1-3.3-1.7c-1-0.7-1.9-1.4-2.7-2.2l2.2-3.7c0.2-0.3,0.4-0.5,0.7-0.7c0.3-0.2,0.6-0.3,1-0.3c0.5,0,1,0.2,1.5,0.6
		c0.5,0.4,1.2,0.8,2,1.3c0.8,0.5,1.6,0.9,2.7,1.3c1,0.4,2.2,0.6,3.6,0.6c2.2,0,3.9-0.5,5-1.5c1.2-1,1.8-2.5,1.8-4.4
		c0-1.1-0.3-2-0.8-2.6c-0.5-0.7-1.3-1.3-2.1-1.7c-0.9-0.5-1.9-0.9-3-1.2c-1.1-0.3-2.3-0.7-3.5-1c-1.2-0.4-2.3-0.8-3.5-1.4
		c-1.1-0.5-2.1-1.2-3-2.1c-0.9-0.9-1.6-1.9-2.1-3.2c-0.5-1.3-0.8-2.9-0.8-4.7c0-1.5,0.3-3,0.9-4.4c0.6-1.4,1.5-2.7,2.6-3.8
		c1.1-1.1,2.5-2,4.2-2.6c1.7-0.7,3.6-1,5.7-1c2.4,0,4.7,0.4,6.7,1.1c2,0.8,3.8,1.8,5.2,3.2L202.6,321.8z"/>
	<path class="st2" d="M271.6,314.4v41h-7.7v-17.9h-19.3v17.9H237v-41h7.7V332h19.3v-17.6H271.6z"/>
	<path class="st2" d="M325.5,334.9c0,3-0.5,5.8-1.5,8.4c-1,2.6-2.4,4.8-4.2,6.7c-1.8,1.9-4,3.3-6.6,4.4c-2.6,1-5.4,1.6-8.5,1.6
		c-3.1,0-5.9-0.5-8.5-1.6c-2.6-1-4.7-2.5-6.6-4.4c-1.8-1.9-3.2-4.1-4.2-6.7c-1-2.6-1.5-5.3-1.5-8.4c0-3,0.5-5.8,1.5-8.4
		c1-2.6,2.4-4.8,4.2-6.7c1.8-1.9,4-3.3,6.6-4.4c2.6-1,5.4-1.6,8.5-1.6c2.1,0,4,0.2,5.9,0.7c1.8,0.5,3.5,1.2,5,2
		c1.5,0.9,2.9,1.9,4.1,3.2c1.2,1.3,2.3,2.7,3.1,4.2c0.9,1.6,1.5,3.2,1.9,5C325.3,331,325.5,332.9,325.5,334.9z M317.7,334.9
		c0-2.3-0.3-4.3-0.9-6.1c-0.6-1.8-1.5-3.3-2.6-4.6s-2.5-2.2-4.1-2.9c-1.6-0.7-3.4-1-5.4-1c-2,0-3.8,0.3-5.4,1
		c-1.6,0.7-3,1.6-4.1,2.9c-1.1,1.2-2,2.8-2.6,4.6c-0.6,1.8-0.9,3.8-0.9,6.1c0,2.3,0.3,4.3,0.9,6.1c0.6,1.8,1.5,3.3,2.6,4.5
		c1.1,1.2,2.5,2.2,4.1,2.9c1.6,0.7,3.4,1,5.4,1c2,0,3.8-0.3,5.4-1c1.6-0.7,3-1.6,4.1-2.9c1.1-1.2,2-2.8,2.6-4.5
		C317.4,339.1,317.7,337.1,317.7,334.9z"/>
	<path class="st2" d="M359.7,321.8c-0.2,0.4-0.5,0.7-0.7,0.9c-0.3,0.2-0.6,0.3-1,0.3c-0.4,0-0.8-0.1-1.3-0.4c-0.5-0.3-1-0.6-1.7-1
		c-0.6-0.4-1.4-0.7-2.3-1c-0.9-0.3-1.9-0.4-3-0.4c-1.1,0-2,0.1-2.8,0.4c-0.8,0.3-1.5,0.6-2,1.1c-0.5,0.5-0.9,1-1.2,1.6
		c-0.3,0.6-0.4,1.3-0.4,2.1c0,1,0.3,1.8,0.8,2.4c0.5,0.6,1.3,1.2,2.1,1.6c0.9,0.5,1.9,0.9,3,1.2c1.1,0.4,2.3,0.7,3.5,1.1
		c1.2,0.4,2.4,0.9,3.5,1.4c1.1,0.5,2.1,1.2,3,2c0.9,0.8,1.6,1.8,2.1,3c0.5,1.2,0.8,2.6,0.8,4.3c0,1.9-0.3,3.6-1,5.2
		c-0.6,1.6-1.6,3-2.8,4.2c-1.2,1.2-2.7,2.1-4.5,2.8c-1.8,0.7-3.8,1-6,1c-1.3,0-2.6-0.1-3.9-0.4c-1.3-0.3-2.5-0.6-3.6-1.1
		c-1.2-0.5-2.3-1-3.3-1.7c-1-0.7-1.9-1.4-2.7-2.2l2.2-3.7c0.2-0.3,0.4-0.5,0.7-0.7c0.3-0.2,0.6-0.3,1-0.3c0.5,0,1,0.2,1.5,0.6
		c0.5,0.4,1.2,0.8,2,1.3c0.8,0.5,1.6,0.9,2.7,1.3c1,0.4,2.2,0.6,3.6,0.6c2.2,0,3.9-0.5,5-1.5c1.2-1,1.8-2.5,1.8-4.4
		c0-1.1-0.3-2-0.8-2.6c-0.5-0.7-1.3-1.3-2.1-1.7c-0.9-0.5-1.9-0.9-3-1.2c-1.1-0.3-2.3-0.7-3.5-1c-1.2-0.4-2.3-0.8-3.5-1.4
		c-1.1-0.5-2.1-1.2-3-2.1c-0.9-0.9-1.6-1.9-2.1-3.2c-0.5-1.3-0.8-2.9-0.8-4.7c0-1.5,0.3-3,0.9-4.4c0.6-1.4,1.5-2.7,2.6-3.8
		c1.1-1.1,2.5-2,4.2-2.6c1.7-0.7,3.6-1,5.7-1c2.4,0,4.7,0.4,6.7,1.1c2,0.8,3.8,1.8,5.2,3.2L359.7,321.8z"/>
	<path class="st2" d="M403.3,320.6H391v34.8h-7.6v-34.8H371v-6.3h32.4V320.6z"/>
	<path class="st2" d="M460.3,345.7c0.4,0,0.8,0.2,1.1,0.5l3,3.3c-1.7,2.1-3.7,3.6-6.1,4.7c-2.4,1.1-5.3,1.6-8.8,1.6
		c-3,0-5.8-0.5-8.2-1.6c-2.4-1-4.5-2.5-6.2-4.3c-1.7-1.9-3-4.1-4-6.6c-0.9-2.6-1.4-5.4-1.4-8.4c0-3.1,0.5-5.9,1.5-8.5
		c1-2.6,2.4-4.8,4.2-6.6c1.8-1.9,3.9-3.3,6.4-4.3c2.5-1,5.2-1.5,8.2-1.5c3,0,5.6,0.5,8,1.5c2.3,1,4.3,2.3,5.9,3.9l-2.6,3.5
		c-0.2,0.2-0.3,0.4-0.6,0.6c-0.2,0.2-0.6,0.3-1,0.3c-0.3,0-0.6-0.1-0.9-0.2c-0.3-0.2-0.6-0.4-1-0.6c-0.4-0.2-0.8-0.5-1.2-0.8
		c-0.5-0.3-1-0.5-1.6-0.8c-0.6-0.2-1.3-0.4-2.2-0.6c-0.8-0.2-1.8-0.2-2.9-0.2c-1.8,0-3.5,0.3-5,1c-1.5,0.7-2.8,1.6-3.9,2.8
		c-1.1,1.2-1.9,2.8-2.6,4.5c-0.6,1.8-0.9,3.8-0.9,6.1c0,2.3,0.3,4.4,1,6.2c0.7,1.8,1.5,3.3,2.7,4.5c1.1,1.2,2.4,2.2,3.9,2.8
		c1.5,0.7,3.1,1,4.9,1c1,0,2-0.1,2.8-0.2s1.6-0.3,2.3-0.5c0.7-0.2,1.4-0.6,2-1c0.6-0.4,1.3-0.9,1.9-1.4c0.2-0.2,0.4-0.3,0.6-0.4
		C459.9,345.8,460.1,345.7,460.3,345.7z"/>
	<path class="st2" d="M499.4,349.1v6.3h-24v-41h7.6v34.7H499.4z"/>
	<path class="st2" d="M518.1,320.4v11.4h14.4v5.9h-14.4v11.6h18.2v6.1h-25.9v-41h25.9v6.1H518.1z"/>
	<path class="st2" d="M583.9,355.4H578c-0.7,0-1.2-0.2-1.6-0.5c-0.4-0.3-0.7-0.7-0.9-1.2l-3.1-8.4h-17l-3.1,8.4
		c-0.2,0.4-0.4,0.8-0.9,1.2c-0.4,0.4-1,0.5-1.6,0.5h-6l16.1-41h7.8L583.9,355.4z M570.5,339.9l-5-13.6c-0.2-0.6-0.5-1.3-0.8-2.2
		c-0.3-0.8-0.5-1.7-0.8-2.7c-0.2,1-0.5,1.9-0.8,2.7c-0.3,0.8-0.5,1.6-0.8,2.2l-5,13.6H570.5z"/>
	<path class="st2" d="M628.4,314.4v41h-3.9c-0.6,0-1.1-0.1-1.5-0.3c-0.4-0.2-0.8-0.5-1.2-1l-21.4-27.3c0.1,1.2,0.2,2.4,0.2,3.5v25.2
		h-6.7v-41h4c0.3,0,0.6,0,0.8,0c0.2,0,0.4,0.1,0.6,0.2c0.2,0.1,0.4,0.2,0.5,0.4c0.2,0.2,0.4,0.4,0.6,0.6l21.5,27.5
		c-0.1-0.7-0.1-1.3-0.1-2c0-0.6-0.1-1.2-0.1-1.8v-24.9H628.4z"/>
	<path class="st2" d="M659.8,349.2c1.5,0,2.8-0.2,4-0.7c1.2-0.5,2.1-1.2,2.9-2.1c0.8-0.9,1.4-2,1.8-3.2c0.4-1.3,0.6-2.7,0.6-4.3
		v-24.6h7.6v24.6c0,2.4-0.4,4.7-1.2,6.8c-0.8,2.1-1.9,3.9-3.4,5.4c-1.5,1.5-3.2,2.7-5.3,3.5c-2.1,0.8-4.5,1.3-7.1,1.3
		c-2.6,0-5-0.4-7.1-1.3c-2.1-0.8-3.9-2-5.3-3.5c-1.5-1.5-2.6-3.3-3.4-5.4c-0.8-2.1-1.2-4.3-1.2-6.8v-24.6h7.6v24.5
		c0,1.6,0.2,3,0.6,4.3c0.4,1.3,1,2.4,1.8,3.2c0.8,0.9,1.8,1.6,3,2.1C657,349,658.3,349.2,659.8,349.2z"/>
	<path class="st2" d="M704.4,314.4c2.7,0,5.1,0.3,7.1,1c2,0.6,3.7,1.5,5,2.7s2.3,2.5,2.9,4.1c0.6,1.6,1,3.4,1,5.3c0,2-0.3,3.8-1,5.5
		c-0.7,1.7-1.7,3.1-3,4.3c-1.3,1.2-3,2.1-5,2.8c-2,0.7-4.3,1-7,1h-5.7v14.4H691v-41H704.4z M704.4,335c1.4,0,2.6-0.2,3.7-0.5
		c1-0.3,1.9-0.9,2.6-1.5c0.7-0.7,1.2-1.4,1.5-2.4c0.3-0.9,0.5-2,0.5-3.1c0-1.1-0.2-2.1-0.5-3c-0.3-0.9-0.9-1.6-1.5-2.3
		c-0.7-0.6-1.5-1.1-2.6-1.4c-1-0.3-2.3-0.5-3.7-0.5h-5.7V335H704.4z"/>
</g>
</svg>
